# xmcd
#
# Track frame offsets: 
#        150
#        15695
#        28450
#        43619
#        57281
#        81748
#        98731
#        122075
#        139017
#        158536
#        171340
#        187933
#        199216
#        214309
#        226852
#        244121
#        260779
#
# Disc length: 3704 seconds
#
# Revision: 0
# Processed by: cddbd v1.5.2PL0 Copyright (c) Steve Scherf et al.
# Submitted via: ExactAudioCopy v1.0b1
#
DISCID=f40e7611
DTITLE=林子祥 - 靚聲經典
DYEAR=2010
DGENRE=pop
TTITLE0=最愛是誰
TTITLE1=抉擇
TTITLE2=似夢迷離
TTITLE3=分分鍾需要你
TTITLE4=千億個夜晚
TTITLE5=幾段情歌
TTITLE6=舊居中的綱琴
TTITLE7=他的一生
TTITLE8=每一個晚上
TTITLE9=愛的種子
TTITLE10=追憶
TTITLE11=一個人
TTITLE12=誰能明白我
TTITLE13=活色生香
TTITLE14=仍然記得嗰一次
TTITLE15=在水中央
TTITLE16=這一個夜
EXTD=
EXTT0=
EXTT1=
EXTT2=
EXTT3=
EXTT4=
EXTT5=
EXTT6=
EXTT7=
EXTT8=
EXTT9=
EXTT10=
EXTT11=
EXTT12=
EXTT13=
EXTT14=
EXTT15=
EXTT16=
PLAYORDER=
